o mc.STL
usemtl Mat_1
v 0.0023903383407741785 0.002400000113993883 -0.00021513433603104204
v 0.002400000113993883 0.002400000113993883 -7.347880536484578e-19
v 0.002400000113993883 -0.002400000113993883 -4.408728425288324e-19
v 0.0023903383407741785 -0.002400000113993883 0.00021513433603104204
v 0.0023903383407741785 0.002400000113993883 0.00021513433603104204
v 0.0023135109804570675 0.002400000113993883 0.0006384884472936392
v 0.0023135109804570675 -0.002400000113993883 0.0006384884472936392
v 0.002162325195968151 0.002400000113993883 0.0010413209674879909
v 0.002162325195968151 -0.002400000113993883 0.0010413209674879909
v 0.0019416407449170947 0.002400000113993883 0.001410684548318386
v 0.0019416407449170947 -0.002400000113993883 0.001410684548318386
v 0.0016585503472015262 0.002400000113993883 0.0017347076209262013
v 0.0016585503472015262 -0.002400000113993883 0.0017347076209262013
v 0.001322152791544795 0.002400000113993883 0.0020029759034514427
v 0.001322152791544795 -0.002400000113993883 0.0020029759034514427
v 0.000943260092753917 0.002400000113993883 0.002206866629421711
v 0.000943260092753917 -0.002400000113993883 0.002206866629421711
v 0.000534050224814564 0.002400000113993883 0.0023398268967866898
v 0.000534050224814564 -0.002400000113993883 0.0023398268967866898
v 0.00010767559433588758 0.002400000113993883 0.002397583331912756
v 0.00010767559433588758 -0.002400000113993883 0.002397583331912756
v -0.0003221598453819752 0.002400000113993883 0.0023782793432474136
v -0.0003221598453819752 -0.002400000113993883 0.0023782793432474136
v -0.000741640804335475 0.002400000113993883 0.002282535657286644
v -0.000741640804335475 -0.002400000113993883 0.002282535657286644
v -0.0011372847948223352 0.002400000113993883 0.0021134293638169765
v -0.0011372847948223352 -0.002400000113993883 0.0021134293638169765
v -0.0014963755384087563 0.002400000113993883 0.0018763955449685454
v -0.0014963755384087563 -0.002400000113993883 0.0018763955449685454
v -0.0018073715036734939 0.002400000113993883 0.0015790528850629926
v -0.0018073715036734939 -0.002400000113993883 0.0015790528850629926
v -0.0020602771546691656 0.002400000113993883 0.0012309582671150565
v -0.0020602771546691656 -0.002400000113993883 0.0012309582671150565
v -0.0022469637915492058 0.002400000113993883 0.0008432995527982712
v -0.0022469637915492058 -0.002400000113993883 0.0008432995527982712
v -0.0023614310193806887 0.002400000113993883 0.00042853655759245157
v -0.0023614310193806887 -0.002400000113993883 0.00042853655759245157
v -0.002400000113993883 0.002400000113993883 1.469576184845098e-19
v -0.002400000113993883 -0.002400000113993883 -1.469576184845098e-19
v -0.0023614310193806887 0.002400000113993883 -0.00042853655759245157
v -0.0023614310193806887 -0.002400000113993883 -0.00042853655759245157
v -0.0022469637915492058 0.002400000113993883 -0.0008432995527982712
v -0.0022469637915492058 -0.002400000113993883 -0.0008432995527982712
v -0.0020602771546691656 0.002400000113993883 -0.0012309582671150565
v -0.0020602771546691656 -0.002400000113993883 -0.0012309582671150565
v -0.0018073715036734939 0.002400000113993883 -0.0015790528850629926
v -0.0018073715036734939 -0.002400000113993883 -0.0015790528850629926
v -0.0014963755384087563 0.002400000113993883 -0.0018763955449685454
v -0.0014963755384087563 -0.002400000113993883 -0.0018763955449685454
v -0.0011372847948223352 0.002400000113993883 -0.0021134293638169765
v -0.0011372847948223352 -0.002400000113993883 -0.0021134293638169765
v -0.000741640804335475 0.002400000113993883 -0.002282535657286644
v -0.000741640804335475 -0.002400000113993883 -0.002282535657286644
v -0.0003221598453819752 0.002400000113993883 -0.0023782793432474136
v -0.0003221598453819752 -0.002400000113993883 -0.0023782793432474136
v 0.00010767559433588758 0.002400000113993883 -0.002397583331912756
v 0.00010767559433588758 -0.002400000113993883 -0.002397583331912756
v 0.000534050224814564 0.002400000113993883 -0.0023398268967866898
v 0.000534050224814564 -0.002400000113993883 -0.0023398268967866898
v 0.000943260092753917 0.002400000113993883 -0.002206866629421711
v 0.000943260092753917 -0.002400000113993883 -0.002206866629421711
v 0.001322152791544795 0.002400000113993883 -0.0020029759034514427
v 0.001322152791544795 -0.002400000113993883 -0.0020029759034514427
v 0.0016585503472015262 0.002400000113993883 -0.0017347076209262013
v 0.0016585503472015262 -0.002400000113993883 -0.0017347076209262013
v 0.0019416407449170947 0.002400000113993883 -0.001410684548318386
v 0.0019416407449170947 -0.002400000113993883 -0.001410684548318386
v 0.002162325195968151 0.002400000113993883 -0.0010413209674879909
v 0.002162325195968151 -0.002400000113993883 -0.0010413209674879909
v 0.0023135109804570675 0.002400000113993883 -0.0006384884472936392
v 0.0023135109804570675 -0.002400000113993883 -0.0006384884472936392
v 0.0023903383407741785 -0.002400000113993883 -0.00021513433603104204
v 0 0.002400000113993883 1.469576184845098e-19
v 0 -0.002400000113993883 -1.469576184845098e-19
vn 0.9989930499887263 -2.854370161937794e-18 -0.044865198921016876
vn 0.9839296224313037 1.0933444905278102e-17 -0.17855670836513537
vn 0.9839296224313037 1.0933444905278102e-17 -0.17855670836513537
vn 0 1 6.123234262925839e-17
vn 0 1 6.123234262925839e-17
vn 0.9989930499887263 -2.854370161937794e-18 -0.044865198921016876
vn 0.9989930499887263 2.747200640610651e-18 0.044865198921016876
vn 0.9989930499887263 -2.747201054200962e-18 0.044865198921016876
vn 0 1 6.123234262925839e-17
vn 0 1 6.123234262925839e-17
vn 0.9989930499887263 -2.854370161937794e-18 -0.044865198921016876
vn 0.9989930499887263 2.747200640610651e-18 0.044865198921016876
vn 0 -1 -6.123234262925839e-17
vn 0 -1 -6.123234262925839e-17
vn 0.9989930499887263 2.747200640610651e-18 0.044865198921016876
vn 0.9839296224313037 -1.0933444905278102e-17 0.17855670836513537
vn 0.9839296224313037 -1.0933444905278102e-17 0.17855670836513537
vn 0 -1 -6.123234262925839e-17
vn 0 -1 -6.123234262925839e-17
vn 0.9989930499887263 -2.747201054200962e-18 0.044865198921016876
vn 0.9839296224313037 -1.0933444905278102e-17 0.17855670836513537
vn 0 1 6.123234262925839e-17
vn 0 1 6.123234262925839e-17
vn 0.9839296224313037 -1.0933444905278102e-17 0.17855670836513537
vn 0.9362347103525633 -2.1515528509295143e-17 0.35137525116469415
vn 0 1 6.123234262925839e-17
vn 0 1 6.123234262925839e-17
vn 0.9839296224313037 -1.0933444905278102e-17 0.17855670836513537
vn 0.9362347103525633 -2.1515528509295143e-17 0.35137525116469415
vn 0.9362347103525633 -2.1515528509295143e-17 0.35137525116469415
vn 0 -1 -6.123234262925839e-17
vn 0 -1 -6.123234262925839e-17
vn 0.9362347103525633 -2.1515528509295143e-17 0.35137525116469415
vn 0.8584487952223536 -3.1406022620414264e-17 0.5128992746936668
vn 0 1 6.123234262925839e-17
vn 0 1 6.123234262925839e-17
vn 0.9362347103525633 -2.1515528509295143e-17 0.35137525116469415
vn 0.8584487952223536 -3.1406022620414264e-17 0.5128992746936668
vn 0.8584487952223536 -3.1406022620414264e-17 0.5128992746936668
vn 0 -1 -6.123234262925839e-17
vn 0 -1 -6.123234262925839e-17
vn 0.8584487952223536 -3.1406022620414264e-17 0.5128992746936668
vn 0.753071508143165 -4.0287124801567503e-17 0.6579386777071091
vn 0 1 6.123234262925839e-17
vn 0 1 6.123234262925839e-17
vn 0.8584487952223536 -3.1406022620414264e-17 0.5128992746936668
vn 0.753071508143165 -4.0287124801567503e-17 0.6579386777071091
vn 0.753071508143165 -4.0287124801567503e-17 0.6579386777071091
vn 0 -1 -6.123234262925839e-17
vn 0 -1 -6.123234262925839e-17
vn 0.753071508143165 -4.0287124801567503e-17 0.6579386777071091
vn 0.6234900509486837 -4.7873360376505814e-17 0.7818312838253582
vn 0 1 6.123234262925839e-17
vn 0 1 6.123234262925839e-17
vn 0.753071508143165 -4.0287124801567503e-17 0.6579386777071091
vn 0.6234900509486837 -4.7873360376505814e-17 0.7818312838253582
vn 0.6234900509486837 -4.7873360376505814e-17 0.7818312838253582
vn 0 -1 -6.123234262925839e-17
vn 0 -1 -6.123234262925839e-17
vn 0.6234900509486837 -4.7873360376505814e-17 0.7818312838253582
vn 0.47386841843027133 -5.3920931621663226e-17 0.8805956631816859
vn 0 1 6.123234262925839e-17
vn 0 1 6.123234262925839e-17
vn 0.6234900509486837 -4.7873360376505814e-17 0.7818312838253582
vn 0.47386841843027133 -5.3920931621663226e-17 0.8805956631816859
vn 0.47386841843027133 -5.3920931621663226e-17 0.8805956631816859
vn 0 -1 -6.123234262925839e-17
vn 0 -1 -6.123234262925839e-17
vn 0.47386841843027133 -5.3920931621663226e-17 0.8805956631816859
vn 0.30901681557239247 -5.823541940325436e-17 0.9510565743916068
vn 0 1 6.123234262925839e-17
vn 0 1 6.123234262925839e-17
vn 0.47386841843027133 -5.3920931621663226e-17 0.8805956631816859
vn 0.30901681557239247 -5.823541940325436e-17 0.9510565743916068
vn 0.30901681557239247 -5.823541940325436e-17 0.9510565743916068
vn 0 -1 -6.123234262925839e-17
vn 0 -1 -6.123234262925839e-17
vn 0.30901681557239247 -5.823541940325436e-17 0.9510565743916068
vn 0.13423341400891664 -6.067817081819487e-17 0.9909497416940533
vn 0 1 6.123234262925839e-17
vn 0 1 6.123234262925839e-17
vn 0.30901681557239247 -5.823541940325436e-17 0.9510565743916068
vn 0.13423341400891664 -6.067817081819487e-17 0.9909497416940533
vn 0.13423341400891664 -6.067817081819487e-17 0.9909497416940533
vn 0 -1 -6.123234262925839e-17
vn 0 -1 -6.123234262925839e-17
vn 0.13423341400891664 -6.067817081819487e-17 0.9909497416940533
vn -0.044864964700132674 -6.117068258660891e-17 0.9989930605076573
vn 0 1 6.123234262925839e-17
vn 0 1 6.123234262925839e-17
vn 0.13423341400891664 -6.067817081819487e-17 0.9909497416940533
vn -0.044864964700132674 -6.117068258660891e-17 0.9989930605076573
vn -0.044864964700132674 -6.117068258660891e-17 0.9989930605076573
vn 0 -1 -6.123234262925839e-17
vn 0 -1 -6.123234262925839e-17
vn -0.044864964700132674 -6.117068258660891e-17 0.9989930605076573
vn -0.22252069524144885 -5.969712217853955e-17 0.9749279666669033
vn 0 1 6.123234262925839e-17
vn 0 1 6.123234262925839e-17
vn -0.044864964700132674 -6.117068258660891e-17 0.9989930605076573
vn -0.22252069524144885 -5.969712217853955e-17 0.9749279666669033
vn -0.22252069524144885 -5.969712217853955e-17 0.9749279666669033
vn 0 -1 -6.123234262925839e-17
vn 0 -1 -6.123234262925839e-17
vn -0.22252069524144885 -5.969712217853955e-17 0.9749279666669033
vn -0.3930249181557967 -5.630484048793521e-17 0.9195278210628699
vn 0 1 6.123234262925839e-17
vn 0 1 6.123234262925839e-17
vn -0.22252069524144885 -5.969712217853955e-17 0.9749279666669033
vn -0.3930249181557967 -5.630484048793521e-17 0.9195278210628699
vn -0.3930249181557967 -5.630484048793521e-17 0.9195278210628699
vn 0 -1 -6.123234262925839e-17
vn 0 -1 -6.123234262925839e-17
vn -0.3930249181557967 -5.630484048793521e-17 0.9195278210628699
vn -0.5508971267819972 -5.110286801546526e-17 0.8345731577898607
vn 0 1 6.123234262925839e-17
vn 0 1 6.123234262925839e-17
vn -0.3930249181557967 -5.630484048793521e-17 0.9195278210628699
vn -0.5508971267819972 -5.110286801546526e-17 0.8345731577898607
vn -0.5508971267819972 -5.110286801546526e-17 0.8345731577898607
vn 0 -1 -6.123234262925839e-17
vn 0 -1 -6.123234262925839e-17
vn -0.5508971267819972 -5.110286801546526e-17 0.8345731577898607
vn -0.6910627472101328 -4.4258414401672046e-17 0.7227947699163187
vn 0 1 6.123234262925839e-17
vn 0 1 6.123234262925839e-17
vn -0.5508971267819972 -5.110286801546526e-17 0.8345731577898607
vn -0.6910627472101328 -4.4258414401672046e-17 0.7227947699163187
vn -0.6910627472101328 -4.4258414401672046e-17 0.7227947699163187
vn 0 -1 -6.123234262925839e-17
vn 0 -1 -6.123234262925839e-17
vn -0.6910627472101328 -4.4258414401672046e-17 0.7227947699163187
vn -0.8090168749427076 -3.599147511007175e-17 0.5877854166768136
vn 0 1 6.123234262925839e-17
vn 0 1 6.123234262925839e-17
vn -0.6910627472101328 -4.4258414401672046e-17 0.7227947699163187
vn -0.8090168749427076 -3.599147511007175e-17 0.5877854166768136
vn -0.8090168749427076 -3.599147511007175e-17 0.5877854166768136
vn 0 -1 -6.123234262925839e-17
vn 0 -1 -6.123234262925839e-17
vn -0.8090168749427076 -3.599147511007175e-17 0.5877854166768136
vn -0.9009688344119521 -2.6567720645342483e-17 0.433883808661223
vn 0 1 6.123234262925839e-17
vn 0 1 6.123234262925839e-17
vn -0.8090168749427076 -3.599147511007175e-17 0.5877854166768136
vn -0.9009688344119521 -2.6567720645342483e-17 0.433883808661223
vn -0.9009688344119521 -2.6567720645342483e-17 0.433883808661223
vn 0 -1 -6.123234262925839e-17
vn 0 -1 -6.123234262925839e-17
vn -0.9009688344119521 -2.6567720645342483e-17 0.433883808661223
vn -0.9639629120885976 -1.6290046643769368e-17 0.266036659349178
vn 0 1 6.123234262925839e-17
vn 0 1 6.123234262925839e-17
vn -0.9009688344119521 -2.6567720645342483e-17 0.433883808661223
vn -0.9639629120885976 -1.6290046643769368e-17 0.266036659349178
vn -0.9639629120885976 -1.6290046643769368e-17 0.266036659349178
vn 0 -1 -6.123234262925839e-17
vn 0 -1 -6.123234262925839e-17
vn -0.9639629120885976 -1.6290046643769368e-17 0.266036659349178
vn -0.9959742718852265 -5.488839833567806e-18 0.08963955456545503
vn 0 1 6.123234262925839e-17
vn 0 1 6.123234262925839e-17
vn -0.9639629120885976 -1.6290046643769368e-17 0.266036659349178
vn -0.9959742718852265 -5.488839833567806e-18 0.08963955456545503
vn -0.9959742718852265 -5.488839833567806e-18 0.08963955456545503
vn 0 -1 -6.123234262925839e-17
vn 0 -1 -6.123234262925839e-17
vn -0.9959742718852265 -5.488839833567806e-18 0.08963955456545503
vn -0.9959742718852265 5.488839833567806e-18 -0.08963955456545503
vn 0 1 6.123234262925839e-17
vn 0 1 6.123234262925839e-17
vn -0.9959742718852265 -5.488839833567806e-18 0.08963955456545503
vn -0.9959742718852265 5.488839833567806e-18 -0.08963955456545503
vn -0.9959742718852265 5.488839833567806e-18 -0.08963955456545503
vn 0 -1 -6.123234262925839e-17
vn 0 -1 -6.123234262925839e-17
vn -0.9959742718852265 5.488839833567806e-18 -0.08963955456545503
vn -0.9639629120885976 1.6290046643769368e-17 -0.266036659349178
vn 0 1 6.123234262925839e-17
vn 0 1 6.123234262925839e-17
vn -0.9959742718852265 5.488839833567806e-18 -0.08963955456545503
vn -0.9639629120885976 1.6290046643769368e-17 -0.266036659349178
vn -0.9639629120885976 1.6290046643769368e-17 -0.266036659349178
vn 0 -1 -6.123234262925839e-17
vn 0 -1 -6.123234262925839e-17
vn -0.9639629120885976 1.6290046643769368e-17 -0.266036659349178
vn -0.9009688344119521 2.6567720645342483e-17 -0.433883808661223
vn 0 1 6.123234262925839e-17
vn 0 1 6.123234262925839e-17
vn -0.9639629120885976 1.6290046643769368e-17 -0.266036659349178
vn -0.9009688344119521 2.6567720645342483e-17 -0.433883808661223
vn -0.9009688344119521 2.6567720645342483e-17 -0.433883808661223
vn 0 -1 -6.123234262925839e-17
vn 0 -1 -6.123234262925839e-17
vn -0.9009688344119521 2.6567720645342483e-17 -0.433883808661223
vn -0.8090168749427076 3.599147511007175e-17 -0.5877854166768136
vn 0 1 6.123234262925839e-17
vn 0 1 6.123234262925839e-17
vn -0.9009688344119521 2.6567720645342483e-17 -0.433883808661223
vn -0.8090168749427076 3.599147511007175e-17 -0.5877854166768136
vn -0.8090168749427076 3.599147511007175e-17 -0.5877854166768136
vn 0 -1 -6.123234262925839e-17
vn 0 -1 -6.123234262925839e-17
vn -0.8090168749427076 3.599147511007175e-17 -0.5877854166768136
vn -0.6910627472101328 4.4258414401672046e-17 -0.7227947699163187
vn 0 1 6.123234262925839e-17
vn 0 1 6.123234262925839e-17
vn -0.8090168749427076 3.599147511007175e-17 -0.5877854166768136
vn -0.6910627472101328 4.4258414401672046e-17 -0.7227947699163187
vn -0.6910627472101328 4.4258414401672046e-17 -0.7227947699163187
vn 0 -1 -6.123234262925839e-17
vn 0 -1 -6.123234262925839e-17
vn -0.6910627472101328 4.4258414401672046e-17 -0.7227947699163187
vn -0.5508971267819972 5.110286801546526e-17 -0.8345731577898607
vn 0 1 6.123234262925839e-17
vn 0 1 6.123234262925839e-17
vn -0.6910627472101328 4.4258414401672046e-17 -0.7227947699163187
vn -0.5508971267819972 5.110286801546526e-17 -0.8345731577898607
vn -0.5508971267819972 5.110286801546526e-17 -0.8345731577898607
vn 0 -1 -6.123234262925839e-17
vn 0 -1 -6.123234262925839e-17
vn -0.5508971267819972 5.110286801546526e-17 -0.8345731577898607
vn -0.3930249181557967 5.630484048793521e-17 -0.9195278210628699
vn 0 1 6.123234262925839e-17
vn 0 1 6.123234262925839e-17
vn -0.5508971267819972 5.110286801546526e-17 -0.8345731577898607
vn -0.3930249181557967 5.630484048793521e-17 -0.9195278210628699
vn -0.3930249181557967 5.630484048793521e-17 -0.9195278210628699
vn 0 -1 -6.123234262925839e-17
vn 0 -1 -6.123234262925839e-17
vn -0.3930249181557967 5.630484048793521e-17 -0.9195278210628699
vn -0.22252069524144885 5.969712217853955e-17 -0.9749279666669033
vn 0 1 6.123234262925839e-17
vn 0 1 6.123234262925839e-17
vn -0.3930249181557967 5.630484048793521e-17 -0.9195278210628699
vn -0.22252069524144885 5.969712217853955e-17 -0.9749279666669033
vn -0.22252069524144885 5.969712217853955e-17 -0.9749279666669033
vn 0 -1 -6.123234262925839e-17
vn 0 -1 -6.123234262925839e-17
vn -0.22252069524144885 5.969712217853955e-17 -0.9749279666669033
vn -0.044864964700132674 6.117068258660891e-17 -0.9989930605076573
vn 0 1 6.123234262925839e-17
vn 0 1 6.123234262925839e-17
vn -0.22252069524144885 5.969712217853955e-17 -0.9749279666669033
vn -0.044864964700132674 6.117068258660891e-17 -0.9989930605076573
vn -0.044864964700132674 6.117068258660891e-17 -0.9989930605076573
vn 0 -1 -6.123234262925839e-17
vn 0 -1 -6.123234262925839e-17
vn -0.044864964700132674 6.117068258660891e-17 -0.9989930605076573
vn 0.13423341400891664 6.067817081819487e-17 -0.9909497416940533
vn 0 1 6.123234262925839e-17
vn 0 1 6.123234262925839e-17
vn -0.044864964700132674 6.117068258660891e-17 -0.9989930605076573
vn 0.13423341400891664 6.067817081819487e-17 -0.9909497416940533
vn 0.13423341400891664 6.067817081819487e-17 -0.9909497416940533
vn 0 -1 -6.123234262925839e-17
vn 0 -1 -6.123234262925839e-17
vn 0.13423341400891664 6.067817081819487e-17 -0.9909497416940533
vn 0.30901681557239247 5.823541940325436e-17 -0.9510565743916068
vn 0 1 6.123234262925839e-17
vn 0 1 6.123234262925839e-17
vn 0.13423341400891664 6.067817081819487e-17 -0.9909497416940533
vn 0.30901681557239247 5.823541940325436e-17 -0.9510565743916068
vn 0.30901681557239247 5.823541940325436e-17 -0.9510565743916068
vn 0 -1 -6.123234262925839e-17
vn 0 -1 -6.123234262925839e-17
vn 0.30901681557239247 5.823541940325436e-17 -0.9510565743916068
vn 0.47386841843027133 5.3920931621663226e-17 -0.8805956631816859
vn 0 1 6.123234262925839e-17
vn 0 1 6.123234262925839e-17
vn 0.30901681557239247 5.823541940325436e-17 -0.9510565743916068
vn 0.47386841843027133 5.3920931621663226e-17 -0.8805956631816859
vn 0.47386841843027133 5.3920931621663226e-17 -0.8805956631816859
vn 0 -1 -6.123234262925839e-17
vn 0 -1 -6.123234262925839e-17
vn 0.47386841843027133 5.3920931621663226e-17 -0.8805956631816859
vn 0.6234900509486837 4.7873360376505814e-17 -0.7818312838253582
vn 0 1 6.123234262925839e-17
vn 0 1 6.123234262925839e-17
vn 0.47386841843027133 5.3920931621663226e-17 -0.8805956631816859
vn 0.6234900509486837 4.7873360376505814e-17 -0.7818312838253582
vn 0.6234900509486837 4.7873360376505814e-17 -0.7818312838253582
vn 0 -1 -6.123234262925839e-17
vn 0 -1 -6.123234262925839e-17
vn 0.6234900509486837 4.7873360376505814e-17 -0.7818312838253582
vn 0.753071508143165 4.0287124801567503e-17 -0.6579386777071091
vn 0 1 6.123234262925839e-17
vn 0 1 6.123234262925839e-17
vn 0.6234900509486837 4.7873360376505814e-17 -0.7818312838253582
vn 0.753071508143165 4.0287124801567503e-17 -0.6579386777071091
vn 0.753071508143165 4.0287124801567503e-17 -0.6579386777071091
vn 0 -1 -6.123234262925839e-17
vn 0 -1 -6.123234262925839e-17
vn 0.753071508143165 4.0287124801567503e-17 -0.6579386777071091
vn 0.8584487952223536 3.1406022620414264e-17 -0.5128992746936668
vn 0 1 6.123234262925839e-17
vn 0 1 6.123234262925839e-17
vn 0.753071508143165 4.0287124801567503e-17 -0.6579386777071091
vn 0.8584487952223536 3.1406022620414264e-17 -0.5128992746936668
vn 0.8584487952223536 3.1406022620414264e-17 -0.5128992746936668
vn 0 -1 -6.123234262925839e-17
vn 0 -1 -6.123234262925839e-17
vn 0.8584487952223536 3.1406022620414264e-17 -0.5128992746936668
vn 0.9362347103525633 2.1515528509295143e-17 -0.35137525116469415
vn 0 1 6.123234262925839e-17
vn 0 1 6.123234262925839e-17
vn 0.8584487952223536 3.1406022620414264e-17 -0.5128992746936668
vn 0.9362347103525633 2.1515528509295143e-17 -0.35137525116469415
vn 0.9362347103525633 2.1515528509295143e-17 -0.35137525116469415
vn 0 -1 -6.123234262925839e-17
vn 0 -1 -6.123234262925839e-17
vn 0.9362347103525633 2.1515528509295143e-17 -0.35137525116469415
vn 0.9839296224313037 1.0933444905278102e-17 -0.17855670836513537
vn 0 1 6.123234262925839e-17
vn 0 1 6.123234262925839e-17
vn 0.9362347103525633 2.1515528509295143e-17 -0.35137525116469415
vn 0.9839296224313037 1.0933444905278102e-17 -0.17855670836513537
vn 0.9839296224313037 1.0933444905278102e-17 -0.17855670836513537
vn 0 -1 -6.123234262925839e-17
vn 0 -1 -6.123234262925839e-17
vn 0.9839296224313037 1.0933444905278102e-17 -0.17855670836513537
vn 0.9989930499887263 2.747201054200962e-18 -0.044865198921016876
vn 0 -1 -6.123234262925839e-17
vn 0 -1 -6.123234262925839e-17
vn 0 1 6.123234262925839e-17
vn 0 -1 -6.123234262925839e-17
f 1//1 2//6 3//11
f 3//12 2//7 4//15
f 2//8 5//20 4//15
f 4//16 5//21 6//24
f 4//17 6//24 7//28
f 7//29 6//25 8//33
f 7//30 8//33 9//37
f 9//38 8//34 10//42
f 9//39 10//42 11//46
f 11//47 10//43 12//51
f 11//48 12//51 13//55
f 13//56 12//52 14//60
f 13//57 14//60 15//64
f 15//65 14//61 16//69
f 15//66 16//69 17//73
f 17//74 16//70 18//78
f 17//75 18//78 19//82
f 19//83 18//79 20//87
f 19//84 20//87 21//91
f 21//92 20//88 22//96
f 21//93 22//96 23//100
f 23//101 22//97 24//105
f 23//102 24//105 25//109
f 25//110 24//106 26//114
f 25//111 26//114 27//118
f 27//119 26//115 28//123
f 27//120 28//123 29//127
f 29//128 28//124 30//132
f 29//129 30//132 31//136
f 31//137 30//133 32//141
f 31//138 32//141 33//145
f 33//146 32//142 34//150
f 33//147 34//150 35//154
f 35//155 34//151 36//159
f 35//156 36//159 37//163
f 37//164 36//160 38//168
f 37//165 38//168 39//172
f 39//173 38//169 40//177
f 39//174 40//177 41//181
f 41//182 40//178 42//186
f 41//183 42//186 43//190
f 43//191 42//187 44//195
f 43//192 44//195 45//199
f 45//200 44//196 46//204
f 45//201 46//204 47//208
f 47//209 46//205 48//213
f 47//210 48//213 49//217
f 49//218 48//214 50//222
f 49//219 50//222 51//226
f 51//227 50//223 52//231
f 51//228 52//231 53//235
f 53//236 52//232 54//240
f 53//237 54//240 55//244
f 55//245 54//241 56//249
f 55//246 56//249 57//253
f 57//254 56//250 58//258
f 57//255 58//258 59//262
f 59//263 58//259 60//267
f 59//264 60//267 61//271
f 61//272 60//268 62//276
f 61//273 62//276 63//280
f 63//281 62//277 64//285
f 63//282 64//285 65//289
f 65//290 64//286 66//294
f 65//291 66//294 67//298
f 67//299 66//295 68//303
f 67//300 68//303 69//307
f 69//308 68//304 70//312
f 69//309 70//312 71//316
f 71//317 70//313 1//2
f 71//318 1//3 72//321
f 72//322 1//1 3//11
f 6//26 5//22 73//325
f 73//325 5//23 2//9
f 73//325 2//10 1//4
f 12//53 10//44 73//325
f 73//325 10//45 8//35
f 73//325 8//36 6//27
f 18//80 16//71 73//325
f 73//325 16//72 14//62
f 73//325 14//63 12//54
f 24//107 22//98 73//325
f 73//325 22//99 20//89
f 73//325 20//90 18//81
f 30//134 28//125 73//325
f 73//325 28//126 26//116
f 73//325 26//117 24//108
f 36//161 34//152 73//325
f 73//325 34//153 32//143
f 73//325 32//144 30//135
f 42//188 40//179 73//325
f 73//325 40//180 38//170
f 73//325 38//171 36//162
f 48//215 46//206 73//325
f 73//325 46//207 44//197
f 73//325 44//198 42//189
f 54//242 52//233 73//325
f 73//325 52//234 50//224
f 73//325 50//225 48//216
f 60//269 58//260 73//325
f 73//325 58//261 56//251
f 73//325 56//252 54//243
f 66//296 64//287 73//325
f 73//325 64//288 62//278
f 73//325 62//279 60//270
f 1//5 70//314 73//325
f 73//325 70//315 68//305
f 73//325 68//306 66//297
f 71//319 72//323 74//326
f 74//326 72//324 3//13
f 74//326 3//14 4//18
f 65//292 67//301 74//326
f 74//326 67//302 69//310
f 74//326 69//311 71//320
f 59//265 61//274 74//326
f 74//326 61//275 63//283
f 74//326 63//284 65//293
f 53//238 55//247 74//326
f 74//326 55//248 57//256
f 74//326 57//257 59//266
f 47//211 49//220 74//326
f 74//326 49//221 51//229
f 74//326 51//230 53//239
f 41//184 43//193 74//326
f 74//326 43//194 45//202
f 74//326 45//203 47//212
f 35//157 37//166 74//326
f 74//326 37//167 39//175
f 74//326 39//176 41//185
f 29//130 31//139 74//326
f 74//326 31//140 33//148
f 74//326 33//149 35//158
f 23//103 25//112 74//326
f 74//326 25//113 27//121
f 74//326 27//122 29//131
f 17//76 19//85 74//326
f 74//326 19//86 21//94
f 74//326 21//95 23//104
f 11//49 13//58 74//326
f 74//326 13//59 15//67
f 74//326 15//68 17//77
f 4//19 7//31 74//326
f 74//326 7//32 9//40
f 74//326 9//41 11//50
